<?xml version="1.0" encoding="UTF-8"?><svg id="Layer_2" xmlns="http://www.w3.org/2000/svg" viewBox="0 0 390 293.49"><defs><style>.cls-1{fill:#0f748b;}.cls-2{fill:#1ebfc2;}</style></defs><g id="Layer_1-2"><g><path class="cls-2" d="m211.28,41.21l1.83,13.31,7.81-8.59c-2.81-1.71-6.09-3.64-9.64-4.72Zm-24.55,8l4.74,6.32,3.52-11.5c-2.72,1.45-5.61,3.09-8.26,5.18Zm0,0l4.74,6.32,3.52-11.5c-2.72,1.45-5.61,3.09-8.26,5.18Zm24.55-8l1.83,13.31,7.81-8.59c-2.81-1.71-6.09-3.64-9.64-4.72Zm0,0l1.83,13.31,7.81-8.59c-2.81-1.71-6.09-3.64-9.64-4.72Zm-24.55,8l4.74,6.32,3.52-11.5c-2.72,1.45-5.61,3.09-8.26,5.18Zm0,0l4.74,6.32,3.52-11.5c-2.72,1.45-5.61,3.09-8.26,5.18Zm24.55-8l1.83,13.31,7.81-8.59c-2.81-1.71-6.09-3.64-9.64-4.72Zm0,0l1.83,13.31,7.81-8.59c-2.81-1.71-6.09-3.64-9.64-4.72Zm-19.81,14.32l3.52-11.5c-2.72,1.45-5.61,3.09-8.26,5.18l4.74,6.32Zm108.6,15.33l-17.43-35.36c-1.51-3.07-5.23-4.35-8.31-2.85-.18.08-16.57,8.02-30.03,13.25-8.06-10.64,1.1-25.6,1.51-26.27,1-1.58,1.24-3.54.64-5.32-.6-1.78-1.98-3.2-3.74-3.85l-15-5.57c-2.65-.99-5.63-.07-7.26,2.24l-2.9,4.1-.6-5.67c-.34-3.16-3.01-5.56-6.2-5.56H0v293.44h206.02c5.18-.23,10.72-1.32,16.54-3.6,6.81-2.67,25.03-12.87,47.09-49.79,14.65-24.52,24.09-50.24,24.65-67.13.6-18.37-2.09-28.49-8.73-32.8-1.17-.76-2.66-1.46-4.51-1.79.55-4.76.64-9.14.24-13.08-.67-6.57-4.17-14.65-10.42-24.1-3.76,1.81-7.53,3.67-11.25,5.61-.13.06-.27.13-.4.2.55.55,1.1,1.11,1.65,1.68,6.93,7.18,13.38,15.43,14.22,21.85.34,2.6.26,5.35-.1,8.12-.31,2.49-.85,4.98-1.52,7.39,2.07-.78,4.37-1.35,6.52-1.03,4.73.7,8.76,5.67,8.07,21.99-.4,9.43-5.66,22.2-13.54,35.08-3.91,10.12-9.25,21.04-15.57,31.62-13.73,22.98-29.42,40.06-40.95,44.58-23.8,9.33-41.69-8.07-42.42-8.79-.37-.38-.78-.7-1.22-.96-11.29-6.78-31.7-26.12-47.29-48.63-4.39-6.34-9.85-15.06-14.24-24.74-11.02-15.23-17.38-31.4-12.32-45.03.11-.31.23-.61.35-.91.68-1.78,1.44-3.47,2.24-5.07-1.82-.8-3.39-3.05-4.62-5.88-1.87-4.25-2.96-9.79-2.96-13.64,0-4.76,12.24-36.61,18.91-53.6,2.78-9.34,5.79-19.26,8.8-28.97h27.7c-.48.7-.95,1.39-1.41,2.08-.37.55-.73,1.09-1.08,1.63-2,3.06-3.8,6.05-5.41,8.96-.18.32-.35.63-.52.95-.43.78-.83,1.55-1.22,2.31-.22.43-.44.85-.65,1.28-.19.38-.38.75-.56,1.13h14.09c4.63-8.27,10.13-15.79,14-20.73,2.39-3.05,3.35-4.22,3.71-4.65.45-.42.83-.91,1.15-1.47.69-1.23.92-2.6.75-3.92l-.94-9.14,4.86-2.06,8.38,14.34c1.28,2.2,3.77,3.39,6.29,3.02,2.52-.37,4.56-2.24,5.15-4.72l4.43-18.57h3.19l1.77,16.5c.27,2.58,2.11,4.72,4.62,5.37,2.51.65,5.16-.32,6.66-2.43l9.66-13.66,4.06,1.5c-.97,2.37-1.93,5.24-2.58,8.38-1,4.9-1.08,9.51-.22,13.76l11.42,3.3s-.86,1.05-1.91,2.81c-1.88,3.13-4.38,8.49-3.77,14.09,2.27-.5,5.4-1.41,9.88-3.03,10-3.63,22.38-9.24,29.44-12.54l12.24,24.85c-.85.53-1.72,1.07-2.6,1.61l6.67,10.53c2.54-1.57,5-3.12,7.38-4.66,2.65-1.71,3.59-5.14,2.2-7.98Zm-86.96-16.34l7.81-8.59c-2.81-1.71-6.09-3.64-9.64-4.72l1.83,13.31Zm-21.64,1.01l3.52-11.5c-2.72,1.45-5.61,3.09-8.26,5.18l4.74,6.32Zm-4.74-6.32l4.74,6.32,3.52-11.5c-2.72,1.45-5.61,3.09-8.26,5.18Zm24.55-8l1.83,13.31,7.81-8.59c-2.81-1.71-6.09-3.64-9.64-4.72Zm0,0l1.83,13.31,7.81-8.59c-2.81-1.71-6.09-3.64-9.64-4.72Zm-24.55,8l4.74,6.32,3.52-11.5c-2.72,1.45-5.61,3.09-8.26,5.18Zm0,0l4.74,6.32,3.52-11.5c-2.72,1.45-5.61,3.09-8.26,5.18Zm24.55-8l1.83,13.31,7.81-8.59c-2.81-1.71-6.09-3.64-9.64-4.72Z"/><path class="cls-2" d="m390,0v293.44h-183.98c5.18-.23,10.72-1.32,16.54-3.6,6.81-2.67,25.03-12.87,47.09-49.79,14.65-24.52,24.09-50.24,24.65-67.13.6-18.37-2.09-28.49-8.73-32.8-1.17-.76-2.66-1.46-4.51-1.79.55-4.76.64-9.14.24-13.08-.67-6.57-4.17-14.65-10.42-24.1-.85-1.28-1.74-2.58-2.69-3.91,4.92-3.15,9.9-6.18,14.75-9.13,2.59-1.58,5.11-3.11,7.55-4.61,2.54-1.57,5-3.12,7.38-4.66,2.65-1.71,3.59-5.14,2.2-7.98l-17.43-35.36c-1.51-3.07-5.23-4.35-8.31-2.85-.18.08-16.57,8.02-30.03,13.25-8.06-10.64,1.1-25.6,1.51-26.27,1-1.58,1.24-3.54.64-5.32-.6-1.78-1.98-3.2-3.74-3.85l-15-5.57c-2.65-.99-5.63-.07-7.26,2.24l-2.9,4.1-.6-5.67c-.34-3.16-3.01-5.56-6.2-5.56h179.25Z"/></g><g><path class="cls-1" d="m207.06,251.7c-1.13,0-2.28-.31-3.31-.96-2.9-1.83-3.78-5.66-1.97-8.57h0c.04-.07,4.4-7.22,7.74-20.79,3.09-12.55,5.92-33.31,1.85-60.98-1.19-8.12-.5-16.08,2.06-23.68,1.1-3.26,4.63-5.01,7.89-3.92,3.26,1.1,5.01,4.63,3.92,7.89-1.95,5.8-2.46,11.65-1.54,17.89,8.5,57.82-10.55,88.9-11.36,90.2-1.18,1.88-3.21,2.91-5.28,2.91Z"/><path class="cls-1" d="m168.88,33.06c-1.05-2.14-3.22-3.5-5.61-3.5h-44.62c-2.72,0-5.13,1.77-5.94,4.37-5.49,17.6-23.41,75.69-23.41,84.37,0,4.25,1.24,18.75,6.64,26.55,1.17,1.68,2.52,3.05,4.1,3.94.27.15.55.28.83.39.72.28,1.48.42,2.24.42.7,0,1.41-.12,2.09-.36,1.7-.61,3.06-1.92,3.71-3.61,2.33-5.97,5.11-10.88,8.09-14.92.47-.63.94-1.24,1.42-1.83,1.55-1.93,3.15-3.64,4.75-5.15.78-.73,1.57-1.42,2.35-2.07,1.84-1.52,3.68-2.81,5.46-3.88,1.01-.62,2-1.17,2.97-1.66.01,0,.03-.02.04-.02.47-.25.94-.47,1.41-.68.01-.01.02-.02.03-.02.7-.32,1.38-.61,2.04-.88,0,0,.02,0,.02,0,.44-.18.87-.34,1.29-.49t.02,0c.42-.15.83-.3,1.23-.42.21-.07.41-.14.61-.2.39-.12.76-.23,1.12-.33.19-.05.37-.1.56-.15.33-.09.64-.17.95-.24.06-.01.11-.02.16-.03.44-.1.86-.19,1.24-.27.2-.03.39-.07.57-.1.05,0,.1-.02.15-.03.03,0,.07,0,.1-.02.22-.03.43-.07.62-.09.11-.02.21-.03.3-.04.18-.03.34-.05.48-.06.36-.04.59-.06.67-.06.12-.01.23-.01.34-.03.14-.01.28-.03.43-.06.05-.01.11-.02.17-.03.03,0,.06,0,.1-.02.09,0,.19-.03.28-.06.03,0,.06-.02.09-.03.2-.05.39-.12.58-.19.06-.02.12-.05.17-.07.04-.01.07-.03.1-.04.14-.06.27-.13.4-.2,0,0,.03,0,.04-.02.07-.04.14-.08.21-.12.1-.05.19-.11.28-.18h0c.12-.08.24-.17.35-.26.02,0,.04-.02.05-.04.02,0,.04-.03.06-.05.03-.02.06-.04.08-.06.15-.12.29-.26.43-.4.63-.65,1.14-1.44,1.45-2.34.83-2.42.1-5.11-1.85-6.77-1.53-1.31-2.74-2.77-3.65-4.36h0c-.04-.06-.08-.12-.11-.18-.02-.04-.04-.07-.06-.11-.11-.2-.22-.4-.31-.61-.07-.11-.12-.23-.17-.35-.11-.23-.22-.46-.31-.7-.12-.28-.22-.56-.32-.84-.33-.92-.57-1.88-.74-2.86-.06-.32-.11-.64-.15-.97-.03-.19-.05-.38-.06-.57-.03-.16-.04-.32-.05-.49,0-.08-.02-.17-.02-.26-.02-.2-.03-.4-.04-.61-.36-8.5,3.71-18.57,8.84-27.73,4.63-8.27,10.13-15.79,14-20.73,1.47-1.87,1.74-4.42.7-6.57Zm-30.92,32.02c-.13.31-.26.63-.39.94-.17.42-.34.84-.5,1.26-.19.49-.38.98-.55,1.47-.23.62-.45,1.24-.65,1.85-.15.44-.3.88-.43,1.32-.18.54-.34,1.07-.49,1.6-.09.33-.18.65-.27.97-.1.37-.2.74-.28,1.1-.09.32-.17.64-.24.96-.07.28-.13.56-.19.84-.2.89-.37,1.77-.51,2.64-.08.5-.16,1-.23,1.49v.04c-.07.49-.12.97-.17,1.44-.05.41-.08.82-.11,1.22,0,.13-.02.25-.03.38-.03.43-.05.86-.06,1.28-.02.48-.03.95-.03,1.41,0,1.01.04,1.99.12,2.96.02.32.05.64.09.96.03.32.07.64.12.95.03.24.06.47.1.7.11.68.24,1.34.39,2,.04.18.08.35.13.52.22.92.49,1.82.8,2.69.08.22.15.44.24.65.11.29.22.57.33.85.19.45.4.91.61,1.35.12.24.24.48.36.71.02.04.04.09.06.13-.02,0-.04,0-.07.02-.46.15-.93.31-1.41.48-.25.09-.49.18-.73.27-.8.3-1.62.63-2.47.99-.32.14-.66.29-.99.44-.33.15-.67.31-1.01.47-.32.15-.65.31-.97.47-.36.18-.72.37-1.09.56-.35.19-.7.38-1.05.57-3.74,2.06-7.67,4.79-11.53,8.37-.23.22-.45.43-.68.65-1.18,1.13-2.35,2.34-3.51,3.65-.26.3-.53.6-.79.92-1.11,1.29-2.2,2.68-3.26,4.15-.27.36-.53.74-.79,1.12-.94,1.34-1.85,2.76-2.74,4.26-.77-3.4-1.33-7.28-1.33-10.82.12-3.6,5.64-23.62,12.68-47.34,2.78-9.34,5.79-19.26,8.8-28.97h27.7c-.48.7-.95,1.39-1.41,2.08-.37.55-.73,1.09-1.08,1.63-2,3.06-3.8,6.05-5.41,8.96-.18.32-.35.63-.52.95-.43.78-.83,1.55-1.22,2.31-.22.43-.44.85-.65,1.28-.19.38-.38.75-.56,1.13-.77,1.6-1.48,3.17-2.13,4.72Z"/><path class="cls-1" d="m300.07,70.86l-17.43-35.36c-1.51-3.07-5.23-4.35-8.31-2.85-.18.08-16.57,8.02-30.03,13.25-1.3.51-2.57.99-3.8,1.43-.66.24-1.29.46-1.87.66-3.24,1.12-5.31,1.68-6.59,1.95-.48.1-.84.16-1.12.2-.1.02-.18.03-.26.04-.24.02-.38.03-.45.03-2.22,0-5.59-2.05-8.85-4.02-.14-.09-.29-.18-.44-.26-2.81-1.71-6.09-3.64-9.64-4.72-3.95-1.23-8.25-1.41-12.64.91-.56.29-1.12.58-1.68.88-.64.33-1.3.68-1.97,1.03-2.72,1.45-5.61,3.09-8.26,5.18-6.05,4.75-10.86,11.77-9.56,23.87.21,1.99.18,2.95.13,3.37-.6.39-1.94,1.03-3.04,1.56-1.26.6-2.7,1.29-4.33,2.15-.24.12-.47.25-.71.38-.24.12-.49.26-.74.4-.22.12-.45.25-.68.38-1.72.97-3.63,2.14-5.74,3.57-.29.2-.58.4-.88.61-1.1.77-2.26,1.62-3.48,2.55-.23.17-.45.35-.69.53-1.2.93-2.45,1.95-3.75,3.05-.77.65-1.57,1.34-2.38,2.07-1.03.92-2.1,1.89-3.2,2.93h0s-.01,0-.01,0c-1.05,1-2.14,2.04-3.25,3.15-1.93.28-4.79.84-8.23,1.97h0s-.04,0-.07.02c-.46.15-.93.31-1.41.48-.25.09-.49.18-.73.27-.8.3-1.62.63-2.47.99-.32.14-.66.29-.99.44-.33.15-.67.31-1.01.47-.32.15-.65.31-.97.47-.36.18-.72.37-1.09.56-.35.19-.7.38-1.05.57-3.74,2.06-7.67,4.79-11.53,8.37-.23.22-.45.43-.68.65-1.18,1.13-2.35,2.34-3.51,3.65-.26.3-.53.6-.79.92-1.11,1.29-2.2,2.68-3.26,4.15-.27.36-.53.74-.79,1.12-.94,1.34-1.85,2.76-2.74,4.26-1.64,2.76-3.18,5.78-4.6,9.08-.41.94-.81,1.9-1.19,2.88-.48,1.22-.93,2.47-1.36,3.74-.5,1.47-.97,2.97-1.41,4.47-7.65,26.5,7.9,56.84,22.3,77.63,16.5,23.82,37.72,43.94,50.51,51.84,2.95,2.75,15.89,13.82,34.31,14.65.72.03,1.44.05,2.18.05s1.45-.02,2.19-.05c5.18-.23,10.72-1.32,16.54-3.6,6.81-2.67,25.03-12.87,47.09-49.79,14.65-24.52,24.09-50.24,24.65-67.13.6-18.37-2.09-28.49-8.73-32.8-1.17-.76-2.66-1.46-4.51-1.79-1.72-.3-3.74-.29-6.06.28-1.31.33-2.71.83-4.21,1.56-.79.38-1.52.78-2.08,1.09-.2.05-.44.1-.71.13-.15.02-.32.04-.49.05-.18.02-.36.03-.56.04-6.2.32-22.74-1.86-39.22-6.66.5-.97,1.03-1.92,1.59-2.86.21-.35.43-.7.65-1.05.24-.38.48-.76.73-1.13.63-.94,1.29-1.87,1.97-2.78.58-.77,1.18-1.53,1.8-2.28.65-.8,1.32-1.58,2.02-2.35.35-.39.7-.78,1.06-1.16,1.86-2,3.83-3.92,5.88-5.76.65-.59,1.31-1.17,1.98-1.74.14-.13.28-.25.42-.36.63-.54,1.27-1.07,1.91-1.6.2-.16.39-.32.59-.47.46-.38.92-.75,1.39-1.11.42-.35.84-.68,1.27-1,.68-.53,1.37-1.05,2.05-1.56.7-.53,1.41-1.05,2.12-1.55.89-.65,1.77-1.28,2.65-1.9,1.65-1.15,3.28-2.26,4.88-3.33,1.82-1.22,3.65-2.41,5.5-3.59,4.92-3.15,9.9-6.18,14.75-9.13,2.59-1.58,5.11-3.11,7.55-4.61,2.54-1.57,5-3.12,7.38-4.66,2.65-1.71,3.59-5.14,2.2-7.98Zm-23.6,6.6c-6.79,4.13-13.81,8.4-20.7,13-15.97,10.67-35.15,25.49-42.16,45.78-.07.16-.12.33-.18.49-1.1,3.26.66,6.79,3.91,7.88,1.92.65,4.08,1.32,6.41,1.99,6.95,2.01,15.42,4.03,23.53,5.43.99.17,1.99.34,2.97.49.16.03.31.05.46.07,1,.15,1.98.29,2.95.42,1.04.14,2.06.26,3.07.37,3.01.32,5.85.5,8.38.5.78,0,1.54-.02,2.26-.05.48-.03.95-.06,1.4-.1.91-.08,1.75-.2,2.52-.35.39-.08.76-.17,1.11-.26.18-.05.35-.1.51-.15.33-.11.64-.22.93-.34.29-.13.57-.26.82-.41.38-.22.96-.55,1.51-.81.02,0,.04-.02.06-.03,1.82-.88,2.55-.8,2.55-.81.1.07,3.13,2.51,3.13,17.66,0,1.33-.02,2.76-.07,4.29-.25,7.76-2.89,18.13-7.31,29.52-3.91,10.12-9.25,21.04-15.57,31.62-13.73,22.98-29.42,40.06-40.95,44.58-23.8,9.33-41.69-8.07-42.42-8.79-.37-.38-.78-.7-1.22-.96-11.29-6.78-31.7-26.12-47.29-48.63-4.39-6.34-9.85-15.06-14.24-24.74-6.15-13.54-10.21-28.96-6.34-42.34.71-2.44,1.52-4.84,2.41-7.15,2.33-5.97,5.11-10.88,8.09-14.92.47-.63.94-1.24,1.42-1.83,1.55-1.93,3.15-3.64,4.75-5.15.78-.74,1.57-1.43,2.35-2.07,1.84-1.52,3.68-2.81,5.46-3.88,1.01-.62,2-1.17,2.97-1.66.01,0,.03-.02.04-.02.47-.25.94-.47,1.41-.68.01-.01.02-.02.03-.02.7-.33,1.38-.62,2.04-.88,0,0,.02,0,.02,0,.44-.18.87-.34,1.29-.49t.02,0c.42-.15.83-.3,1.23-.42.21-.07.41-.14.61-.2.39-.12.76-.23,1.12-.33.19-.05.37-.1.56-.15.33-.09.64-.17.95-.24.06-.01.11-.02.16-.03.45-.11.86-.2,1.24-.27.2-.04.39-.07.56-.11.06,0,.11-.01.16-.02.03,0,.07,0,.1-.02.22-.03.43-.07.62-.09.11-.02.21-.03.3-.04.18-.03.34-.05.48-.06.36-.04.59-.06.67-.06.12-.01.23-.01.34-.03.14-.01.28-.03.43-.06.05-.01.11-.02.17-.03.03,0,.06,0,.1-.02.09,0,.19-.03.28-.06.03,0,.06-.02.09-.03.2-.05.39-.12.58-.19.06-.02.12-.05.17-.07.04-.01.07-.03.1-.04.14-.06.27-.13.4-.2,0,0,.03,0,.04-.02.07-.04.14-.08.21-.12.1-.05.19-.11.28-.18h0c.12-.08.24-.17.35-.26.02,0,.04-.02.05-.04.02,0,.04-.03.06-.05,0,0,.03-.01.04-.02.01-.02.03-.03.04-.04.15-.12.29-.26.43-.4,1.59-1.62,3.11-3.1,4.56-4.47,11.32-10.65,18.71-14.17,23.34-16.39,6.99-3.34,11.14-6.18,9.93-17.49-1.05-9.82,3.79-12.83,13.16-17.72.58-.3,1.17-.6,1.75-.91,2.13-1.13,5.51.74,10.43,3.72,4.51,2.73,9.61,5.82,15.31,5.82,1.04,0,2.43-.1,4.65-.59,2.27-.5,5.4-1.41,9.88-3.03,10-3.63,22.38-9.24,29.44-12.54l12.24,24.85c-.85.53-1.72,1.07-2.6,1.61-2.37,1.46-4.83,2.96-7.35,4.49Z"/><path class="cls-1" d="m281.3,125.25c-.67-6.57-4.17-14.65-10.42-24.1-.85-1.28-1.74-2.58-2.69-3.91-1.26-1.76-2.61-3.56-4.04-5.41-2-2.59-5.66-3.18-8.38-1.37-15.97,10.67-35.15,25.49-42.16,45.78-.07.16-.12.33-.18.49-1.1,3.26.66,6.79,3.91,7.88,1.92.65,4.08,1.32,6.41,1.99,6.95,2.01,15.42,4.03,23.53,5.43.99.17,1.99.34,2.97.49.16.03.31.05.46.07,1,.15,1.98.29,2.95.42,1.04.14,2.06.26,3.07.37,3.01.32,5.85.5,8.38.5.78,0,1.54-.02,2.26-.05.48-.03.95-.06,1.4-.1.91-.08,1.75-.2,2.52-.35.39-.08.76-.17,1.11-.26.18-.05.35-.1.51-.15.33-.11.64-.22.93-.34.29-.13.57-.26.82-.41.38-.22.96-.55,1.51-.81.02,0,.04-.02.06-.03,1.71-.85,2.93-2.41,3.34-4.28.16-.72.3-1.43.43-2.13.45-2.29.8-4.5,1.06-6.64.55-4.76.64-9.14.24-13.08Zm-13.79,16.19c-.18.02-.36.03-.56.04-6.2.32-22.74-1.86-39.22-6.66.5-.97,1.03-1.92,1.59-2.86.21-.35.42-.7.65-1.05.23-.38.48-.76.73-1.13.63-.94,1.29-1.87,1.97-2.78.58-.77,1.18-1.53,1.8-2.28.65-.8,1.32-1.58,2.02-2.35.34-.39.7-.78,1.06-1.16,1.86-2,3.83-3.92,5.88-5.76.65-.59,1.31-1.17,1.98-1.74.14-.13.28-.25.42-.36.63-.54,1.27-1.08,1.91-1.6.2-.16.39-.32.59-.47.46-.39.92-.76,1.39-1.11.42-.35.84-.68,1.27-1,.68-.53,1.37-1.05,2.05-1.56.7-.53,1.41-1.05,2.12-1.55.89-.65,1.77-1.28,2.65-1.9.63.88,1.24,1.75,1.82,2.6.43.64.85,1.26,1.25,1.88,4.79,7.32,7.58,13.49,8.02,17.86.43,4.21.12,9.21-.9,14.89-.15.02-.32.04-.49.05Z"/><path class="cls-1" d="m246.73,48.5c-.95-.83-1.75-1.7-2.43-2.6-8.06-10.64,1.1-25.6,1.51-26.27,1-1.58,1.24-3.54.64-5.32-.6-1.78-1.98-3.2-3.74-3.85l-15-5.57c-2.65-.99-5.63-.07-7.26,2.24l-2.9,4.1-.6-5.67c-.34-3.16-3.01-5.56-6.2-5.56h-13.71c-2.89,0-5.39,1.98-6.06,4.78l-1.97,8.25-3.31-5.66c-1.58-2.71-4.93-3.82-7.81-2.59l-14.15,6c-2.51,1.07-4.04,3.65-3.76,6.37l1.16,11.3c-.27.33-.56.7-.89,1.11-.55.69-1.18,1.49-1.88,2.39-2.69,3.43-5.16,6.79-7.43,10.07-.48.7-.95,1.39-1.41,2.08-.37.55-.73,1.09-1.08,1.63-2,3.06-3.8,6.05-5.41,8.96-.18.32-.35.63-.52.95-.43.78-.83,1.55-1.22,2.31-.22.43-.44.85-.65,1.28-.19.38-.38.75-.56,1.13-.77,1.6-1.48,3.17-2.13,4.72-.13.31-.26.63-.39.94-.17.42-.34.84-.5,1.26-.19.49-.38.98-.55,1.47-.23.62-.45,1.24-.65,1.85-.15.44-.3.88-.43,1.32-.18.54-.34,1.07-.49,1.6-.09.33-.18.65-.27.97-.1.37-.2.74-.28,1.1-.09.32-.17.64-.24.96-.07.28-.13.56-.19.84-.2.89-.37,1.77-.51,2.64-.08.5-.16,1-.23,1.49v.04c-.07.49-.12.97-.17,1.44-.05.41-.08.82-.11,1.22,0,.13-.02.25-.03.38-.03.43-.05.86-.06,1.28-.02.48-.03.95-.03,1.41,0,1.01.04,1.99.12,2.96.02.32.05.64.09.96.03.32.07.64.12.95.03.24.06.47.1.7.11.68.24,1.34.39,2,.04.18.08.35.13.52.22.92.49,1.82.8,2.69.08.22.15.44.24.65.11.29.22.57.33.85.19.45.4.91.61,1.35.12.24.24.48.36.71.02.05.04.09.07.13,1.7,3.25,4.05,6.17,7.06,8.73,1.17.99,2.6,1.48,4.04,1.48.2,0,.4-.01.61-.03.14-.01.28-.03.43-.06.05-.01.11-.02.17-.03.03,0,.06,0,.1-.02.12-.02.25-.05.37-.09.2-.05.39-.12.58-.19.06-.02.12-.05.17-.07.04-.01.07-.03.1-.04.14-.06.27-.13.4-.2,0,0,.03,0,.04-.02.17-.09.33-.19.49-.3h0c.12-.08.24-.17.35-.26.02,0,.04-.02.05-.04.02,0,.04-.03.06-.05,0,0,.03-.01.04-.02.01-.02.03-.03.04-.04.15-.12.29-.26.43-.4,1.59-1.62,3.11-3.1,4.56-4.47,11.32-10.65,18.71-14.17,23.34-16.39,6.99-3.34,11.14-6.18,9.93-17.49-1.05-9.82,3.79-12.83,13.16-17.72.58-.3,1.17-.6,1.75-.91,2.13-1.13,5.51.74,10.43,3.72,4.51,2.73,9.61,5.82,15.31,5.82,1.04,0,2.43-.1,4.65-.59,2.27-.5,5.4-1.41,9.88-3.03,2.07-.75,3.59-2.54,4-4.71.41-2.17-.36-4.39-2.01-5.84Zm-15.81,1.64c-.1.02-.18.03-.26.04-.24.02-.38.03-.45.03-2.22,0-5.59-2.05-8.85-4.02-.14-.09-.29-.18-.44-.26-2.81-1.71-6.09-3.64-9.64-4.72-3.95-1.23-8.25-1.41-12.64.91-.56.29-1.12.58-1.68.88-.64.33-1.3.68-1.97,1.03-2.72,1.45-5.61,3.09-8.26,5.18-6.05,4.75-10.86,11.77-9.56,23.87.21,1.99.18,2.95.13,3.37-.6.39-1.94,1.03-3.04,1.56-1.26.6-2.7,1.29-4.33,2.15-.24.12-.47.25-.71.38-.24.12-.49.26-.74.4-.22.12-.45.25-.68.38-1.72.97-3.63,2.14-5.74,3.57-.29.2-.58.4-.88.61-1.1.77-2.26,1.62-3.48,2.55-.23.17-.45.35-.69.53-1.2.93-2.45,1.95-3.75,3.05-.77.65-1.57,1.34-2.38,2.07-1.03.92-2.1,1.89-3.2,2.93h0s-.01,0-.01,0c-.03-.06-.07-.12-.1-.18-.02-.04-.04-.07-.06-.11-.11-.2-.22-.4-.31-.61-.07-.11-.12-.23-.17-.35-.11-.23-.22-.46-.31-.7-.12-.28-.22-.56-.32-.84-.33-.92-.57-1.88-.74-2.86-.06-.32-.11-.64-.15-.97-.03-.19-.05-.38-.06-.57-.03-.16-.04-.32-.05-.49,0-.08-.02-.17-.02-.26-.02-.2-.03-.4-.04-.61-.36-8.5,3.71-18.57,8.84-27.73,4.63-8.27,10.13-15.79,14-20.73,2.39-3.05,3.35-4.22,3.71-4.65.45-.42.83-.91,1.15-1.47.69-1.23.92-2.6.75-3.92l-.94-9.14,4.86-2.06,8.38,14.34c1.28,2.2,3.77,3.39,6.29,3.02,2.52-.37,4.56-2.24,5.15-4.72l4.43-18.57h3.19l1.77,16.5c.27,2.58,2.11,4.72,4.62,5.37,2.51.65,5.16-.32,6.66-2.43l9.66-13.66,4.06,1.5c-.97,2.37-1.93,5.24-2.58,8.38-1,4.9-1.08,9.51-.22,13.76.55,2.86,1.53,5.55,2.92,8.06-.48.1-.84.16-1.12.2Z"/><path class="cls-1" d="m187.93,188.45c-2.81,0-5.36-1.91-6.05-4.76-.12-.51-12.67-51.09-38.63-73.2-2.62-2.23-2.93-6.16-.7-8.78,2.23-2.62,6.16-2.93,8.78-.7,12.31,10.48,23.24,27.14,32.48,49.49,6.79,16.41,10.04,29.7,10.18,30.25.81,3.34-1.24,6.71-4.59,7.52-.49.12-.99.18-1.47.18Z"/></g></g></svg>