<?xml version="1.0" encoding="UTF-8"?><svg id="Layer_2" xmlns="http://www.w3.org/2000/svg" viewBox="0 0 390 376.92"><defs><style>.cls-1{fill:#0f748b;}.cls-2{fill:#1ebfc2;}</style></defs><g id="Layer_1-2"><path class="cls-2" d="m0,0v376.92h390V0H0Zm275.1,167.62c.64,6.34-.21,13.38-1.62,19.91,6.61-3.21,15.59-3.57,14.59,26.93-1.1,33.61-39.68,100.3-67.78,111.32-28.11,11.02-49.13-10.21-49.13-10.21-24.36-14.62-83.31-78.93-70.64-122.78.78-2.72,1.65-5.28,2.59-7.68-4.56-2.58-7.58-16.84-7.58-25.07s23.12-82.51,23.12-82.51h44.62c3.73-4.76,4.27-5.33,4.34-5.36l-1.43-13.92,14.14-6,11.15,19.08,5.57-23.36h13.71l2.36,22.07,12.43-17.57,15,5.57s-14.28,22.56,2.08,36.89c14.43-5.23,34.43-14.94,34.43-14.94l17.43,35.37c-10.54,6.84-23.23,13.99-35.25,22.03,7.53,9.7,14.96,21.32,15.87,30.23Z"/><g><path class="cls-1" d="m207.05,293.44c-1.13,0-2.28-.31-3.31-.96-2.9-1.83-3.78-5.66-1.97-8.57h0c.04-.07,4.4-7.22,7.74-20.79,3.09-12.55,5.92-33.31,1.85-60.98-1.19-8.12-.5-16.08,2.06-23.68,1.1-3.26,4.63-5.01,7.89-3.92,3.26,1.1,5.01,4.63,3.92,7.89-1.95,5.8-2.46,11.65-1.54,17.89,8.5,57.82-10.55,88.9-11.36,90.2-1.18,1.88-3.21,2.91-5.28,2.91Z"/><path class="cls-1" d="m103.11,191.34c-1.06,0-2.12-.27-3.07-.81-8.92-5.04-10.74-25.33-10.74-30.49,0-8.68,17.91-66.77,23.4-84.37.81-2.6,3.22-4.38,5.95-4.38h44.62c2.38,0,4.56,1.36,5.6,3.5,1.04,2.14.77,4.69-.7,6.57-10.7,13.65-33.76,46.97-16.85,61.37,1.95,1.66,2.68,4.35,1.85,6.77-.83,2.41-3.04,4.07-5.59,4.2-1.12.06-26.27,1.86-38.68,33.67-.66,1.68-2.01,3-3.71,3.6-.68.24-1.38.36-2.09.36Zm20.13-107.58c-10.66,34.38-21.31,71.29-21.48,76.31,0,3.54.55,7.42,1.33,10.82,10.12-17.09,23.71-24.33,33.09-27.4-7.47-14.25-2.42-34.84,14.76-59.74h-27.7Z"/><path class="cls-1" d="m203.82,335.23c-19.57,0-33.43-11.83-36.49-14.69-12.79-7.91-34.01-28.03-50.51-51.84-14.4-20.79-29.96-51.13-22.3-77.63.8-2.79,1.74-5.56,2.77-8.22,13.15-33.7,38.83-40.11,47.12-41.32,14.57-14.49,24.08-19.03,29.84-21.78,1.1-.53,2.44-1.16,3.04-1.56.05-.42.08-1.38-.13-3.37-2-18.71,10.59-25.29,19.79-30.08.56-.29,1.12-.59,1.68-.88,8.53-4.52,16.73.45,22.72,4.07,3.26,1.97,6.63,4.02,8.85,4.02.39,0,2.73-.14,10.29-2.88,13.95-5.06,33.64-14.59,33.83-14.68,3.08-1.5,6.79-.22,8.31,2.85l17.43,35.36c1.4,2.83.45,6.26-2.2,7.98-4.67,3.03-9.65,6.06-14.93,9.27-6.68,4.06-13.58,8.26-20.25,12.71-12.74,8.51-27.7,19.81-34.96,33.99,18.45,5.38,36.98,7.46,40.99,6.45.55-.32,1.28-.72,2.08-1.1,7.02-3.41,11.92-1.91,14.78-.05,6.64,4.31,9.33,14.43,8.73,32.8-.55,16.89-10,42.61-24.64,67.12-22.06,36.93-40.28,47.12-47.09,49.79-6.66,2.61-12.94,3.65-18.73,3.65Zm2.08-240.69c-.53,0-1.01.11-1.44.33-.58.31-1.16.61-1.75.92-9.37,4.89-14.21,7.9-13.16,17.71,1.21,11.31-2.94,14.16-9.93,17.5-5.22,2.5-13.97,6.67-27.89,20.86-1.11,1.13-2.6,1.79-4.18,1.86-1.03.06-26.21,1.82-38.64,33.67-.9,2.3-1.71,4.71-2.41,7.14-6.63,22.95,10.04,51.88,20.57,67.08,15.6,22.51,36.01,41.86,47.29,48.63.45.27.86.59,1.22.96.73.73,18.62,18.12,42.42,8.8,11.52-4.52,27.21-21.6,40.94-44.58,13.42-22.46,22.41-46.46,22.89-61.14h0c.62-18.99-2.96-21.87-3.06-21.95,0,.01-.74-.07-2.59.82-.58.28-1.15.6-1.53.82-8.49,4.94-41.33-2.21-57.32-7.6-3.26-1.1-5.01-4.63-3.92-7.88,6.89-20.54,26.25-35.52,42.34-46.27,6.89-4.61,13.91-8.87,20.7-13,3.45-2.1,6.78-4.12,9.95-6.1l-12.24-24.85c-7.05,3.3-19.44,8.91-29.43,12.53-8.86,3.21-12.42,3.62-14.54,3.62-5.69,0-10.8-3.09-15.3-5.82-3.93-2.38-6.88-4.05-9-4.05Zm62.51,88.64s0,0-.01,0c0,0,0,0,.01,0Z"/><path class="cls-1" d="m265.1,195.62c-13.52,0-35.55-5.14-47.77-9.26-3.26-1.1-5.01-4.63-3.92-7.88,6.89-20.54,26.25-35.51,42.34-46.27,2.72-1.82,6.38-1.22,8.38,1.36,10.5,13.54,16.27,24.78,17.15,33.42.63,6.25.05,13.61-1.73,21.85-.41,1.88-1.66,3.47-3.4,4.31-.55.26-1.12.59-1.5.81-2.01,1.17-5.37,1.66-9.55,1.66Zm8.37-8.09h.01-.01Zm-45.75-10.97c17.52,5.11,35.11,7.24,40.27,6.58,1.02-5.68,1.33-10.68.9-14.89-.53-5.24-4.43-13.06-11.09-22.35-11.49,8.06-23.73,18.26-30.08,30.66Z"/><path class="cls-1" d="m147.28,153.71c-1.43,0-2.87-.49-4.04-1.49-17.95-15.29-12.58-43.18,15.12-78.54,1.12-1.43,2.05-2.6,2.77-3.5l-1.16-11.29c-.28-2.72,1.25-5.3,3.76-6.37l14.14-6c2.89-1.22,6.23-.11,7.81,2.59l3.31,5.66,1.97-8.25c.67-2.81,3.18-4.79,6.06-4.79h13.72c3.18,0,5.86,2.4,6.19,5.57l.61,5.67,2.9-4.1c1.63-2.31,4.61-3.23,7.26-2.24l15,5.57c1.76.65,3.13,2.07,3.73,3.85.6,1.78.37,3.74-.64,5.32-.45.72-11.18,18.27.92,28.87,1.66,1.45,2.42,3.67,2.02,5.84s-1.93,3.96-4,4.71c-8.86,3.21-12.42,3.62-14.54,3.62-5.69,0-10.8-3.09-15.3-5.82-4.92-2.98-8.3-4.85-10.44-3.72-.58.31-1.16.61-1.75.92-9.37,4.89-14.21,7.9-13.16,17.71,1.21,11.31-2.94,14.16-9.93,17.5-5.22,2.5-13.97,6.67-27.89,20.86-1.22,1.24-2.83,1.87-4.45,1.87Zm24.6-77c-.36.43-1.32,1.6-3.71,4.66-9.73,12.41-29.67,41.08-20.51,57,12.75-12.02,21.27-16.09,26.59-18.63,1.1-.53,2.44-1.16,3.04-1.56.05-.42.08-1.38-.13-3.37-2-18.71,10.59-25.29,19.79-30.08.56-.29,1.12-.59,1.68-.88,8.53-4.52,16.73.45,22.72,4.07,3.26,1.97,6.63,4.02,8.85,4.02.17,0,.69-.03,1.83-.27-3.44-6.22-4.38-13.61-2.69-21.82.65-3.14,1.61-6.01,2.57-8.38l-4.06-1.51-9.66,13.66c-1.5,2.12-4.15,3.08-6.66,2.43-2.51-.65-4.35-2.79-4.63-5.37l-1.76-16.5h-3.2l-4.43,18.58c-.59,2.48-2.63,4.34-5.15,4.72-2.52.37-5.01-.82-6.29-3.02l-8.38-14.34-4.86,2.06.94,9.14c.18,1.31-.05,2.69-.75,3.92-.31.55-.7,1.04-1.14,1.46Z"/><path class="cls-1" d="m187.92,230.19c-2.81,0-5.36-1.91-6.05-4.76-.12-.51-12.67-51.09-38.63-73.2-2.62-2.23-2.93-6.16-.7-8.78,2.23-2.62,6.16-2.93,8.78-.7,12.31,10.48,23.24,27.14,32.48,49.49,6.79,16.41,10.04,29.7,10.18,30.25.81,3.34-1.24,6.71-4.59,7.52-.49.12-.99.18-1.47.18Z"/></g></g></svg>