<?xml version="1.0" encoding="UTF-8"?><svg id="Layer_2" xmlns="http://www.w3.org/2000/svg" viewBox="0 0 390 293.49"><defs><style>.cls-1{fill:#ff5a19;}.cls-2{fill:#b7250c;}</style></defs><g id="Layer_1-2"><g><path class="cls-1" d="m211.28,41.21l1.83,13.31,7.81-8.59c-2.81-1.71-6.09-3.64-9.64-4.72Zm-24.55,8l4.74,6.32,3.52-11.5c-2.72,1.44-5.61,3.09-8.26,5.18Zm113.33,21.65l-17.42-35.36c-1.52-3.07-5.23-4.35-8.31-2.85-.18.08-16.56,8.02-30.03,13.25-8.06-10.64,1.09-25.6,1.51-26.27,1-1.58,1.24-3.54.64-5.32-.61-1.78-1.98-3.2-3.74-3.85l-15-5.57c-2.65-.99-5.63-.07-7.26,2.24l-2.9,4.1-.6-5.67c-.34-3.16-3.01-5.56-6.2-5.56H0v293.44h206.03c5.17-.23,10.71-1.32,16.53-3.6,6.81-2.67,25.03-12.87,47.09-49.79,14.65-24.52,24.09-50.24,24.65-67.13.6-18.37-2.09-28.49-8.73-32.8-1.17-.76-2.67-1.46-4.52-1.79.56-4.76.65-9.14.25-13.08-.67-6.57-4.17-14.65-10.42-24.1-3.76,1.81-7.53,3.67-11.25,5.61-.13.06-.27.13-.4.2.55.56,1.11,1.12,1.66,1.69,6.93,7.18,13.37,15.42,14.21,21.84.34,2.6.26,5.35-.09,8.12-.32,2.49-.86,4.98-1.53,7.39,2.07-.78,4.37-1.35,6.52-1.03,4.73.7,8.76,5.67,8.07,21.99-.4,9.43-5.66,22.2-13.54,35.08-3.91,10.12-9.25,21.04-15.57,31.62-13.73,22.98-29.42,40.06-40.95,44.58-23.8,9.33-41.69-8.07-42.42-8.79-.37-.38-.78-.7-1.22-.96-11.29-6.78-31.7-26.12-47.29-48.63-4.39-6.34-9.85-15.06-14.24-24.74-11.02-15.23-17.38-31.4-12.32-45.03.11-.31.23-.61.35-.91.68-1.78,1.44-3.47,2.24-5.07-1.82-.8-3.4-3.05-4.63-5.87-1.86-4.25-2.95-9.8-2.95-13.65,0-4.76,12.24-36.61,18.91-53.6h0c2.77-9.35,5.78-19.26,8.79-28.97h27.7c-.48.7-.95,1.39-1.41,2.08-.37.55-.73,1.09-1.08,1.63-.44.68-.88,1.35-1.29,2.02-.58.91-1.13,1.81-1.67,2.7-.37.61-.72,1.21-1.07,1.81-.09.14-.17.28-.25.42-.38.68-.76,1.35-1.13,2.01-.18.32-.35.63-.52.95-.43.78-.83,1.55-1.22,2.31-.22.43-.44.85-.65,1.28-.19.38-.38.75-.56,1.13h14.09c2.03-3.62,4.22-7.09,6.37-10.27.23-.34.46-.68.69-1.01,1.93-2.81,3.8-5.36,5.47-7.54.24-.32.47-.63.7-.92.27-.34.52-.67.77-.99,2.39-3.05,3.35-4.22,3.71-4.65.45-.42.83-.91,1.15-1.47.69-1.23.92-2.61.74-3.92l-.94-9.14,4.87-2.06,8.38,14.34c1.28,2.2,3.77,3.39,6.29,3.02,2.52-.37,4.56-2.24,5.15-4.72l4.43-18.57h3.19l1.77,16.5c.27,2.58,2.11,4.72,4.62,5.37,2.51.65,5.16-.32,6.66-2.43l9.66-13.66,4.05,1.5c-.96,2.37-1.92,5.24-2.57,8.38-1,4.9-1.08,9.51-.22,13.76l11.42,3.3s-.86,1.05-1.91,2.81c-1.88,3.13-4.38,8.49-3.77,14.09,2.27-.5,5.4-1.41,9.88-3.03,10-3.63,22.38-9.24,29.44-12.54l12.24,24.85c-.85.53-1.72,1.07-2.6,1.61l6.67,10.53c2.54-1.57,5-3.12,7.38-4.66,2.65-1.71,3.59-5.14,2.19-7.98Zm-86.95-16.34l7.81-8.59c-2.81-1.71-6.09-3.64-9.64-4.72l1.83,13.31Zm-21.64,1.01l3.52-11.5c-2.72,1.44-5.61,3.09-8.26,5.18l4.74,6.32Z"/><path class="cls-1" d="m390,0v293.44h-183.97c5.17-.23,10.71-1.32,16.53-3.6,6.81-2.67,25.03-12.87,47.09-49.79,14.65-24.52,24.09-50.24,24.65-67.13.6-18.37-2.09-28.49-8.73-32.8-1.17-.76-2.67-1.46-4.52-1.79.56-4.76.65-9.14.25-13.08-.67-6.57-4.17-14.65-10.42-24.1-.85-1.28-1.74-2.58-2.69-3.91,4.92-3.15,9.9-6.18,14.75-9.13,2.59-1.58,5.11-3.11,7.55-4.61,2.54-1.57,5-3.12,7.38-4.66,2.65-1.71,3.59-5.14,2.19-7.98l-17.42-35.36c-1.52-3.07-5.23-4.35-8.31-2.85-.18.08-16.56,8.02-30.03,13.25-8.06-10.64,1.09-25.6,1.51-26.27,1-1.58,1.24-3.54.64-5.32-.61-1.78-1.98-3.2-3.74-3.85l-15-5.57c-2.65-.99-5.63-.07-7.26,2.24l-2.9,4.1-.6-5.67c-.34-3.16-3.01-5.56-6.2-5.56h179.25Z"/></g><g><path class="cls-2" d="m207.05,251.7c-1.13,0-2.28-.31-3.31-.96-2.9-1.83-3.78-5.66-1.97-8.57.07-.12,4.41-7.26,7.74-20.79,3.09-12.55,5.92-33.31,1.85-60.98-1.19-8.12-.5-16.08,2.06-23.68,1.1-3.26,4.63-5.01,7.89-3.92,3.26,1.1,5.01,4.63,3.92,7.89-1.95,5.8-2.46,11.65-1.54,17.89,8.5,57.82-10.55,88.9-11.36,90.2-1.18,1.88-3.21,2.91-5.28,2.91Z"/><path class="cls-2" d="m168.88,33.06c-1.05-2.14-3.22-3.5-5.61-3.5h-44.62c-2.72,0-5.13,1.77-5.94,4.37-5.5,17.6-23.41,75.69-23.41,84.37,0,4.25,1.23,18.75,6.64,26.55,1.17,1.68,2.52,3.05,4.1,3.94.27.15.55.28.83.39.72.28,1.48.42,2.24.42.7,0,1.41-.12,2.09-.36,1.7-.61,3.06-1.92,3.71-3.61.19-.5.39-.99.59-1.47.2-.48.4-.96.61-1.42.06-.15.13-.3.19-.44.05-.11.1-.21.15-.32.31-.68.62-1.33.93-1.97.39-.8.79-1.57,1.2-2.33.27-.49.54-.97.81-1.44.23-.4.46-.8.7-1.18.23-.39.47-.77.71-1.14.2-.32.41-.64.61-.95.35-.51.69-1.01,1.04-1.5.43-.6.86-1.18,1.29-1.74.5-.65,1.01-1.28,1.52-1.88t.02-.02c.5-.59,1.01-1.17,1.53-1.72.53-.57,1.06-1.12,1.6-1.65l.07-.07c.47-.46.94-.9,1.41-1.32.02-.02.03-.03.05-.05.53-.47,1.05-.93,1.58-1.36.79-.66,1.58-1.26,2.36-1.83.26-.19.52-.38.78-.55.36-.26.72-.5,1.08-.73.27-.18.54-.35.81-.51.14-.09.28-.18.42-.26.26-.16.51-.31.76-.45.82-.48,1.62-.91,2.41-1.31.18-.09.36-.18.54-.26.72-.35,1.43-.67,2.11-.96.23-.1.46-.19.68-.28,0,0,.02,0,.02,0,.44-.18.87-.34,1.29-.49t.02,0c.42-.15.82-.29,1.22-.42.21-.07.41-.14.62-.2.39-.12.76-.23,1.12-.33,0,0,.01,0,.02,0,.47-.13.92-.24,1.34-.34.03,0,.06,0,.09-.02.09-.03.19-.05.28-.07.42-.09.81-.17,1.18-.25.2-.03.39-.07.57-.1.07,0,.14-.02.2-.04.24-.04.46-.07.67-.1.1-.02.2-.03.3-.04.18-.03.34-.05.48-.06h0c.14-.02.25-.03.35-.04.15,0,.25-.02.3-.02.08-.01.16-.01.24-.02.03,0,.07,0,.11,0,.2-.02.4-.05.6-.09.09-.02.19-.04.29-.06,0,0,.02,0,.03,0,.07-.02.14-.03.21-.06.03,0,.07-.01.1-.03.04-.01.07-.02.11-.03.11-.03.21-.07.31-.11.06-.02.12-.05.17-.07.04-.01.07-.03.1-.04.14-.06.27-.13.4-.2,0,0,.03,0,.04-.02.09-.04.17-.09.25-.15.08-.04.16-.09.24-.15.04-.02.08-.05.12-.08,0,0,0,0,0-.01.1-.06.19-.13.28-.21.03-.02.05-.04.08-.06.02-.02.04-.03.06-.05.03-.02.05-.04.08-.07.12-.1.23-.21.34-.32h0c.64-.66,1.14-1.45,1.45-2.35.83-2.42.1-5.11-1.85-6.77-1.53-1.31-2.74-2.77-3.65-4.36h0c-.04-.06-.08-.12-.11-.18-.02-.04-.04-.07-.06-.11-.11-.2-.22-.4-.31-.61-.07-.11-.12-.23-.17-.35-.11-.23-.22-.46-.31-.7-.12-.28-.22-.56-.32-.84-.13-.37-.25-.75-.35-1.14-.06-.18-.11-.37-.15-.56-.09-.38-.17-.77-.24-1.16-.06-.32-.11-.64-.15-.97-.03-.19-.05-.38-.06-.57-.02-.08-.02-.16-.03-.24,0-.08,0-.16-.02-.25,0-.08-.02-.17-.02-.26-.02-.2-.03-.4-.04-.61-.03-.62-.03-1.25,0-1.88,0-.4.04-.81.07-1.22.02-.37.06-.74.1-1.12.03-.27.06-.54.1-.81.05-.39.11-.78.18-1.18.01-.09.03-.19.05-.29.03-.18.06-.37.1-.56.12-.61.25-1.23.4-1.85.05-.23.11-.45.17-.68.03-.13.06-.26.1-.39.07-.28.15-.56.23-.84.12-.45.26-.9.4-1.35.08-.27.17-.55.26-.82.55-1.68,1.2-3.38,1.91-5.07.22-.51.44-1.03.67-1.54.74-1.65,1.54-3.3,2.39-4.93.13-.27.28-.54.42-.81.42-.8.86-1.6,1.3-2.39,2.03-3.62,4.22-7.09,6.37-10.27.23-.34.46-.68.69-1.01,1.93-2.81,3.8-5.36,5.47-7.54.24-.32.47-.63.7-.92.27-.34.52-.67.77-.99,1.47-1.87,1.74-4.42.7-6.57Zm-30.92,32.02c-.13.31-.26.63-.39.94-.17.42-.34.84-.5,1.26-.19.49-.38.98-.55,1.47-.23.62-.45,1.24-.65,1.85-.07.22-.15.43-.22.65-.07.22-.14.45-.21.67-.02.07-.05.14-.07.21-.14.43-.27.86-.39,1.29,0,.03-.02.07-.03.1-.09.33-.18.65-.27.97-.02.09-.05.18-.07.27-.06.22-.12.44-.17.65,0,.06-.03.12-.04.18-.08.28-.15.57-.21.85,0,.04-.02.07-.03.11-.07.28-.13.56-.19.84-.2.89-.37,1.77-.51,2.64-.08.48-.15.96-.22,1.43,0,.02,0,.04,0,.06v.04c-.07.49-.12.97-.17,1.44-.05.41-.08.82-.11,1.22,0,.13-.02.25-.03.38,0,.04,0,.07,0,.11-.02.39-.04.79-.05,1.17-.02.48-.03.95-.03,1.41,0,.5,0,1,.03,1.49v.02c.02.48.05.97.09,1.45.02.32.05.64.09.96.03.32.07.64.12.95.03.24.06.47.1.7.01.08.03.16.04.24.06.37.13.74.21,1.1.1.49.21.97.33,1.44.09.37.19.72.3,1.08,0,.03.02.06.03.09.12.42.26.84.41,1.26.08.22.15.44.24.65.11.29.22.57.33.85.19.45.4.91.61,1.35.12.24.24.48.36.71.02.04.04.09.06.13-.03,0-.05,0-.07.02-.56.19-1.14.39-1.74.6-.46.17-.93.35-1.41.54s-.97.39-1.46.6c-.32.14-.66.29-.99.44-.13.05-.25.11-.38.17-.53.25-1.06.5-1.6.77-.02,0-.04.02-.05.03-.35.17-.69.35-1.04.53-.35.19-.7.38-1.05.57-.39.21-.78.43-1.17.66-.32.19-.64.38-.96.58-.36.22-.72.44-1.08.67-.36.24-.72.47-1.09.72-.36.24-.72.49-1.09.75-.36.26-.73.52-1.09.79-.36.27-.73.55-1.09.83-.72.56-1.44,1.15-2.16,1.76l-.03.03c-.37.32-.73.64-1.1.97-.35.31-.7.64-1.05.97,0,0-.03.03-.06.05-.35.34-.71.68-1.06,1.04-.72.71-1.44,1.46-2.15,2.25-.29.32-.59.65-.88.99-.19.22-.38.44-.57.66-.22.26-.44.52-.66.79-.35.43-.7.86-1.04,1.3-.35.44-.69.9-1.03,1.36-.27.36-.54.74-.81,1.12-.01.02-.02.03-.04.05-.38.55-.77,1.12-1.15,1.69-.33.5-.66,1-.98,1.52-.32.51-.64,1.04-.96,1.57-.77-3.4-1.33-7.28-1.33-10.82.11-3.6,5.63-23.62,12.68-47.34h0c2.77-9.35,5.78-19.26,8.79-28.97h27.7c-.48.7-.95,1.39-1.41,2.08-.37.55-.73,1.09-1.08,1.63-.44.68-.88,1.35-1.29,2.02-.58.91-1.13,1.81-1.67,2.7-.37.61-.72,1.21-1.07,1.81-.09.14-.17.28-.25.42-.38.68-.76,1.35-1.13,2.01-.18.32-.35.63-.52.95-.43.78-.83,1.55-1.22,2.31-.22.43-.44.85-.65,1.28-.19.38-.38.75-.56,1.13-.77,1.6-1.48,3.17-2.13,4.72Z"/><path class="cls-2" d="m213.42,136.73s-.03.09-.04.14c.02-.05.03-.1.05-.15h-.01Zm86.64-65.86l-17.42-35.36c-1.52-3.07-5.23-4.35-8.31-2.85-.18.08-16.56,8.02-30.03,13.25-1.3.51-2.57.98-3.8,1.43-.66.24-1.29.46-1.87.66-3.24,1.12-5.31,1.68-6.59,1.95-.47.1-.84.16-1.12.2-.1.02-.19.03-.27.04-.23.02-.38.03-.45.03-2.21,0-5.58-2.05-8.84-4.02-.14-.09-.29-.18-.44-.26-2.81-1.71-6.09-3.64-9.64-4.72-3.95-1.23-8.25-1.41-12.64.91-.56.29-1.12.58-1.69.88-.64.33-1.29.68-1.96,1.03-2.72,1.44-5.61,3.09-8.26,5.18-6.05,4.75-10.86,11.77-9.56,23.87.21,1.99.18,2.95.13,3.37-.6.39-1.94,1.03-3.04,1.56-1.26.6-2.7,1.29-4.33,2.15-.24.12-.47.25-.72.38-.24.13-.48.26-.73.4-.22.12-.45.25-.68.38-2.84,1.61-6.19,3.73-10.09,6.73-.23.17-.46.35-.69.53-.92.71-1.88,1.48-2.86,2.3-.62.52-1.26,1.05-1.9,1.61-.06.05-.12.1-.17.15-.39.34-.8.7-1.2,1.06-1.04.91-2.11,1.89-3.21,2.93h0s-.01,0-.01,0c-1.05,1-2.14,2.04-3.25,3.15-1.93.28-4.8.84-8.23,1.97h0s-.05,0-.07.02c-.56.19-1.14.39-1.74.6-.46.17-.93.35-1.41.54s-.97.39-1.46.6c-.32.14-.66.29-.99.44-.13.05-.25.11-.38.17-.53.25-1.06.5-1.6.77-.02,0-.04.02-.05.03-.35.17-.69.35-1.04.53-.35.19-.7.38-1.05.57-.39.21-.78.43-1.17.66-.32.19-.64.38-.96.58-.36.22-.72.44-1.08.67-.36.24-.72.47-1.09.72-.36.24-.72.49-1.09.75-.36.26-.73.52-1.09.79-.36.27-.73.55-1.09.83-.72.55-1.44,1.14-2.16,1.76l-.03.03c-.37.32-.73.64-1.1.97-.35.31-.7.64-1.05.97,0,0-.03.03-.06.05-.35.34-.71.68-1.06,1.04-.72.71-1.44,1.46-2.15,2.25-.29.32-.59.65-.88.99-.19.22-.38.44-.57.66-.22.26-.44.52-.66.79-.35.43-.7.86-1.04,1.3-.35.44-.69.9-1.03,1.36-.27.36-.54.74-.81,1.12-.01.02-.02.03-.04.05-.38.55-.77,1.12-1.15,1.69-.33.5-.66,1-.98,1.52-.32.51-.64,1.04-.96,1.57-1.64,2.76-3.19,5.78-4.61,9.09-.4.93-.8,1.89-1.18,2.87-.47,1.23-.93,2.47-1.36,3.74-.51,1.47-.98,2.97-1.41,4.47-7.66,26.5,7.9,56.84,22.3,77.63,16.5,23.82,37.72,43.94,50.51,51.84,2.95,2.75,15.89,13.82,34.31,14.65.72.03,1.45.05,2.18.05s1.46-.02,2.2-.05c5.17-.23,10.71-1.32,16.53-3.6,6.81-2.67,25.03-12.87,47.09-49.79,14.65-24.52,24.09-50.24,24.65-67.13.6-18.37-2.09-28.49-8.73-32.8-1.17-.76-2.67-1.46-4.52-1.79-1.72-.3-3.73-.29-6.04.28-1.31.33-2.72.83-4.22,1.56-.79.38-1.52.78-2.08,1.09-.2.05-.44.09-.71.13-.15.02-.32.04-.49.05-.11,0-.23.02-.35.03-2.59.16-7.15-.15-12.83-.94-.54-.07-1.09-.15-1.66-.24-1.04-.15-2.12-.32-3.23-.51-.61-.1-1.22-.21-1.85-.32-.17-.03-.35-.06-.52-.1-.7-.12-1.42-.26-2.14-.4-.53-.1-1.07-.21-1.61-.32-.81-.16-1.62-.33-2.44-.51-1.13-.24-2.27-.5-3.43-.77-.83-.19-1.67-.39-2.51-.6-1.53-.38-3.08-.78-4.63-1.21-.86-.24-1.72-.48-2.58-.73.4-.79.83-1.57,1.28-2.34.17-.28.34-.57.51-.85,1.42-2.33,3.04-4.58,4.82-6.75.28-.35.57-.7.87-1.04.88-1.04,1.79-2.05,2.73-3.05.31-.33.62-.66.95-.99.32-.33.64-.65.97-.98.97-.97,1.97-1.92,2.99-2.85.68-.62,1.37-1.24,2.07-1.84.55-.49,1.1-.96,1.65-1.41.25-.21.5-.42.75-.62.61-.51,1.22-1.01,1.84-1.49.65-.54,1.31-1.05,1.97-1.55.19-.15.38-.3.57-.44.56-.42,1.11-.84,1.67-1.26,1.48-1.1,2.97-2.17,4.44-3.2,1.65-1.15,3.28-2.26,4.88-3.33,1.82-1.22,3.65-2.41,5.5-3.59,4.92-3.15,9.9-6.18,14.75-9.13,2.59-1.58,5.11-3.11,7.55-4.61,2.54-1.57,5-3.12,7.38-4.66,2.65-1.71,3.59-5.14,2.19-7.98Zm-23.59,6.6c-6.79,4.13-13.81,8.4-20.7,13-16.1,10.76-35.45,25.73-42.34,46.26h-.01c-.02.06-.03.1-.04.15v.02c-.99,3.21.76,6.65,3.96,7.72,1.92.65,4.08,1.32,6.41,1.99,6.95,2.01,15.42,4.03,23.53,5.43,1.08.19,2.15.37,3.22.53,1.07.16,2.12.31,3.16.45,1.04.14,2.06.26,3.07.37,3.01.32,5.84.5,8.38.5.78,0,1.54-.02,2.26-.05.48-.03.95-.06,1.4-.1.91-.08,1.75-.2,2.52-.35.39-.08.76-.17,1.11-.26.18-.05.35-.1.51-.15.33-.11.64-.22.93-.34.29-.13.57-.26.82-.41.38-.22.95-.55,1.51-.81.02,0,.04-.02.06-.03,1.82-.88,2.55-.8,2.55-.81.1.07,3.13,2.51,3.13,17.66,0,1.33-.02,2.76-.07,4.29-.25,7.76-2.89,18.13-7.31,29.52-3.91,10.12-9.25,21.04-15.57,31.62-13.73,22.98-29.42,40.06-40.95,44.58-23.8,9.33-41.69-8.07-42.42-8.79-.37-.38-.78-.7-1.22-.96-11.29-6.78-31.7-26.12-47.29-48.63-4.39-6.34-9.85-15.06-14.24-24.74-6.15-13.54-10.21-28.96-6.34-42.34.7-2.44,1.52-4.84,2.41-7.15.19-.5.39-.99.59-1.47.2-.48.4-.96.61-1.42.06-.15.13-.3.19-.44.05-.11.1-.21.15-.32.31-.68.62-1.33.93-1.97.39-.8.79-1.57,1.2-2.33.27-.49.54-.97.81-1.44.23-.4.46-.8.7-1.18.23-.39.47-.77.71-1.14.2-.32.41-.64.61-.95.35-.51.69-1.01,1.04-1.5.43-.6.86-1.18,1.29-1.74.5-.65,1.01-1.28,1.52-1.88t.02-.02c.51-.59,1.02-1.17,1.53-1.72.53-.57,1.06-1.12,1.6-1.65l.07-.07c.47-.46.94-.9,1.41-1.32.02-.02.03-.03.05-.05.53-.47,1.05-.93,1.58-1.36.79-.66,1.58-1.26,2.36-1.83.26-.19.52-.38.78-.55.36-.26.72-.5,1.08-.73.27-.18.54-.35.81-.51.14-.09.28-.18.42-.26.26-.16.51-.31.76-.45.82-.48,1.62-.91,2.41-1.31.18-.09.36-.18.54-.26.72-.35,1.43-.67,2.11-.96.23-.1.46-.19.68-.28,0,0,.02,0,.02,0,.44-.18.87-.34,1.29-.49t.02,0c.42-.15.82-.29,1.22-.42.21-.07.41-.14.62-.2.39-.12.76-.23,1.12-.33,0,0,.01,0,.02,0,.47-.13.92-.24,1.34-.34.03,0,.06,0,.09-.02.09-.03.19-.05.28-.07.42-.1.82-.18,1.18-.25.2-.04.39-.07.56-.11.08-.01.15-.02.21-.03.24-.04.46-.07.67-.1.1-.02.2-.03.3-.04.18-.03.34-.05.48-.06h0c.14-.02.25-.03.35-.04.15,0,.25-.02.3-.02.08-.01.16-.01.24-.02.03,0,.07,0,.11,0,.2-.02.4-.05.6-.09.09-.02.19-.04.29-.06,0,0,.02,0,.03,0,.07-.02.14-.03.21-.06.03,0,.07-.01.1-.03.04-.01.07-.02.11-.03.11-.03.21-.07.31-.11.06-.02.12-.05.17-.07.04-.01.07-.03.1-.04.14-.06.27-.13.4-.2,0,0,.03,0,.04-.02.09-.04.17-.09.25-.15.08-.04.16-.09.24-.15.04-.02.08-.05.12-.08,0,0,0,0,0-.01.1-.06.19-.13.28-.21.03-.02.05-.04.08-.06.02-.02.04-.03.06-.05.03-.02.05-.04.08-.07.12-.1.23-.21.34-.32h0c1.59-1.63,3.11-3.12,4.56-4.48,11.32-10.65,18.71-14.18,23.34-16.39,6.98-3.34,11.14-6.18,9.93-17.49-1.05-9.82,3.79-12.83,13.16-17.72.58-.3,1.17-.6,1.75-.91,2.13-1.13,5.51.74,10.43,3.72,4.51,2.73,9.61,5.82,15.3,5.82,1.05,0,2.44-.1,4.66-.59,2.27-.5,5.4-1.41,9.88-3.03,10-3.63,22.38-9.24,29.44-12.54l12.24,24.85c-.85.53-1.72,1.07-2.6,1.61-2.37,1.46-4.83,2.96-7.35,4.49Z"/><path class="cls-2" d="m281.3,125.25c-.67-6.57-4.17-14.65-10.42-24.1-.85-1.28-1.74-2.58-2.69-3.91-1.26-1.76-2.61-3.56-4.04-5.41-2-2.59-5.66-3.18-8.38-1.37-16.1,10.76-35.45,25.73-42.34,46.26h-.01c-.02.06-.03.1-.04.15v.02c-.99,3.21.76,6.65,3.96,7.72,1.92.65,4.08,1.32,6.41,1.99,6.95,2.01,15.42,4.03,23.53,5.43,1.08.19,2.15.37,3.22.53,1.07.16,2.12.31,3.16.45,1.04.14,2.06.26,3.07.37,3.01.32,5.84.5,8.38.5.78,0,1.54-.02,2.26-.05.48-.03.95-.06,1.4-.1.91-.08,1.75-.2,2.52-.35.39-.08.76-.17,1.11-.26.18-.05.35-.1.51-.15.33-.11.64-.22.93-.34.29-.13.57-.26.82-.41.38-.22.95-.55,1.51-.81.02,0,.04-.02.06-.03,1.71-.85,2.93-2.41,3.34-4.28.16-.72.3-1.43.43-2.13.45-2.29.8-4.5,1.05-6.64.56-4.76.65-9.14.25-13.08Zm-13.79,16.19c-.11,0-.23.02-.35.03-2.59.16-7.15-.15-12.83-.94-.54-.07-1.09-.15-1.66-.24-1.04-.15-2.12-.32-3.23-.51-.61-.1-1.22-.21-1.85-.32-.17-.03-.35-.06-.52-.1-.7-.12-1.42-.26-2.14-.4-.53-.1-1.07-.21-1.61-.32-.81-.16-1.62-.33-2.44-.51-1.13-.24-2.27-.5-3.43-.77-.83-.19-1.67-.39-2.51-.6-1.53-.38-3.08-.78-4.63-1.21-.86-.24-1.72-.48-2.58-.73.4-.79.83-1.57,1.28-2.34.17-.28.34-.57.51-.85,1.42-2.33,3.04-4.58,4.82-6.75.28-.35.57-.7.87-1.04.88-1.04,1.79-2.05,2.73-3.05.31-.33.63-.66.95-.99.32-.33.64-.65.97-.98.97-.97,1.97-1.92,2.99-2.85.68-.62,1.37-1.24,2.07-1.84.54-.47,1.09-.94,1.65-1.41.25-.21.5-.42.75-.62.61-.51,1.22-1.01,1.84-1.49.65-.54,1.31-1.05,1.97-1.55.19-.15.38-.3.57-.44.56-.42,1.11-.84,1.67-1.26,1.48-1.1,2.97-2.17,4.44-3.2.63.88,1.24,1.75,1.82,2.6.44.64.86,1.27,1.26,1.89,4.78,7.31,7.57,13.48,8.01,17.85.43,4.21.12,9.21-.9,14.89-.15.02-.32.04-.49.05Z"/><path class="cls-2" d="m246.72,48.5c-.95-.83-1.75-1.7-2.42-2.6-8.06-10.64,1.09-25.6,1.51-26.27,1-1.58,1.24-3.54.64-5.32-.61-1.78-1.98-3.2-3.74-3.85l-15-5.57c-2.65-.99-5.63-.07-7.26,2.24l-2.9,4.1-.6-5.67c-.34-3.16-3.01-5.56-6.2-5.56h-13.71c-2.89,0-5.39,1.98-6.06,4.78l-1.97,8.25-3.31-5.66c-1.58-2.71-4.93-3.82-7.81-2.59l-14.15,6c-2.51,1.07-4.04,3.65-3.76,6.37l1.16,11.3c-.27.33-.56.7-.89,1.11-.55.69-1.18,1.49-1.88,2.39-2.69,3.43-5.16,6.79-7.43,10.07-.48.7-.95,1.39-1.41,2.08-.37.55-.73,1.09-1.08,1.63-.44.68-.88,1.35-1.29,2.02-.58.91-1.13,1.81-1.67,2.7-.37.61-.72,1.21-1.07,1.81-.09.14-.17.28-.25.42-.38.68-.76,1.35-1.13,2.01-.18.32-.35.63-.52.95-.43.78-.83,1.55-1.22,2.31-.22.43-.44.85-.65,1.28-.19.38-.38.75-.56,1.13-.77,1.6-1.48,3.17-2.13,4.72-.13.31-.26.63-.39.94-.17.42-.34.84-.5,1.26-.19.49-.38.98-.55,1.47-.23.62-.45,1.24-.65,1.85-.07.22-.15.43-.22.65-.07.22-.14.45-.21.67-.02.07-.05.14-.07.21-.14.43-.27.86-.39,1.29,0,.03-.02.07-.03.1-.09.33-.18.65-.27.97-.02.09-.05.18-.07.27-.06.22-.12.44-.17.65,0,.06-.03.12-.04.18-.08.28-.15.57-.21.85,0,.04-.02.07-.03.11-.07.28-.13.56-.19.84-.2.89-.37,1.77-.51,2.64-.08.48-.15.96-.22,1.43,0,.02,0,.04,0,.06v.04c-.07.49-.12.97-.17,1.44-.05.41-.08.82-.11,1.22,0,.13-.02.25-.03.38,0,.04,0,.07,0,.11-.02.39-.04.79-.05,1.17-.02.48-.03.95-.03,1.41,0,.5,0,1,.03,1.49v.02c.02.48.05.97.09,1.45.02.32.05.64.09.96.03.32.07.64.12.95.03.24.06.47.1.7.01.08.03.16.04.24.06.37.13.74.21,1.1.1.49.21.97.33,1.44.09.37.19.72.3,1.08,0,.03.02.06.03.09.12.42.26.84.41,1.26.08.22.15.44.24.65.11.29.22.57.33.85.19.45.4.91.61,1.35.12.24.24.48.36.71.02.05.04.09.07.13,1.7,3.25,4.05,6.17,7.06,8.73,1.17.99,2.6,1.48,4.04,1.48.16,0,.33-.01.5-.02.03,0,.07,0,.11,0,.2-.02.4-.05.6-.09.09-.02.19-.04.29-.06,0,0,.02,0,.03,0,.07-.02.14-.03.21-.06.03,0,.07-.01.1-.03.04-.01.07-.02.11-.03.11-.03.21-.07.31-.11.06-.02.12-.05.17-.07.04-.01.07-.03.1-.04.14-.06.27-.13.4-.2,0,0,.03,0,.04-.02.09-.04.17-.09.25-.15.08-.04.16-.09.24-.15.04-.02.08-.05.12-.08,0,0,0,0,0-.01.1-.06.19-.13.28-.21.03-.02.05-.04.08-.06.02-.02.04-.03.06-.05.03-.02.05-.04.08-.07.12-.1.23-.21.34-.32h0c1.59-1.63,3.11-3.12,4.56-4.48,11.32-10.65,18.71-14.18,23.34-16.39,6.98-3.34,11.14-6.18,9.93-17.49-1.05-9.82,3.79-12.83,13.16-17.72.58-.3,1.17-.6,1.75-.91,2.13-1.13,5.51.74,10.43,3.72,4.51,2.73,9.61,5.82,15.3,5.82,1.05,0,2.44-.1,4.66-.59,2.27-.5,5.4-1.41,9.88-3.03,2.07-.75,3.59-2.54,4-4.71.41-2.17-.36-4.39-2.02-5.84Zm-15.8,1.64c-.1.02-.19.03-.27.04-.23.02-.38.03-.45.03-2.21,0-5.58-2.05-8.84-4.02-.14-.09-.29-.18-.44-.26-2.81-1.71-6.09-3.64-9.64-4.72-3.95-1.23-8.25-1.41-12.64.91-.56.29-1.12.58-1.69.88-.64.33-1.29.68-1.96,1.03-2.72,1.44-5.61,3.09-8.26,5.18-6.05,4.75-10.86,11.77-9.56,23.87.21,1.99.18,2.95.13,3.37-.6.39-1.94,1.03-3.04,1.56-1.26.6-2.7,1.29-4.33,2.15-.24.12-.47.25-.72.38-.24.13-.48.26-.73.4-.22.12-.45.25-.68.38-2.84,1.61-6.19,3.73-10.09,6.73-.23.17-.46.35-.69.53-.92.71-1.88,1.48-2.86,2.3-.62.52-1.26,1.05-1.9,1.61-.06.05-.12.1-.17.15-.39.34-.8.7-1.2,1.06-1.04.91-2.11,1.89-3.21,2.93h0s-.01,0-.01,0c-.03-.06-.07-.12-.1-.18-.02-.04-.04-.07-.06-.11-.11-.2-.22-.4-.31-.61-.07-.11-.12-.23-.17-.35-.11-.23-.22-.46-.31-.7-.12-.28-.22-.56-.32-.84-.13-.37-.25-.75-.35-1.14-.06-.18-.11-.37-.15-.56-.09-.38-.17-.77-.24-1.16-.06-.32-.11-.64-.15-.97-.03-.19-.05-.38-.06-.57-.02-.08-.02-.16-.03-.24,0-.08,0-.16-.02-.25,0-.08-.02-.17-.02-.26-.02-.2-.03-.4-.04-.61-.03-.62-.03-1.25,0-1.88,0-.4.04-.81.07-1.22.02-.37.06-.74.1-1.12.03-.27.06-.54.1-.81.05-.39.11-.78.18-1.18.01-.09.03-.19.05-.29.03-.18.06-.37.1-.56.12-.61.25-1.23.4-1.85.05-.23.11-.45.17-.68.03-.13.06-.26.1-.39.07-.28.15-.56.23-.84.12-.45.26-.9.4-1.35.08-.27.17-.55.26-.82.55-1.68,1.2-3.38,1.91-5.07.22-.51.44-1.03.67-1.54.74-1.65,1.54-3.3,2.39-4.93.13-.27.28-.54.42-.81.42-.8.86-1.6,1.3-2.39,2.03-3.62,4.22-7.09,6.37-10.27.23-.34.46-.68.69-1.01,1.93-2.81,3.8-5.36,5.47-7.54.24-.32.47-.63.7-.92.27-.34.52-.67.77-.99,2.39-3.05,3.35-4.22,3.71-4.65.45-.42.83-.91,1.15-1.47.69-1.23.92-2.61.74-3.92l-.94-9.14,4.87-2.06,8.38,14.34c1.28,2.2,3.77,3.39,6.29,3.02,2.52-.37,4.56-2.24,5.15-4.72l4.43-18.57h3.19l1.77,16.5c.27,2.58,2.11,4.72,4.62,5.37,2.51.65,5.16-.32,6.66-2.43l9.66-13.66,4.05,1.5c-.96,2.37-1.92,5.24-2.57,8.38-1,4.9-1.08,9.51-.22,13.76.55,2.86,1.53,5.55,2.92,8.06-.47.1-.84.16-1.12.2Z"/><path class="cls-2" d="m187.93,188.45c-2.81,0-5.36-1.91-6.05-4.76-.12-.51-12.67-51.09-38.63-73.2-2.62-2.23-2.93-6.16-.7-8.78,2.23-2.62,6.16-2.93,8.78-.7,12.31,10.48,23.24,27.14,32.48,49.49,6.79,16.41,10.04,29.7,10.18,30.25.81,3.34-1.24,6.71-4.59,7.52-.49.12-.99.18-1.47.18Z"/></g></g></svg>